<mxfile host="app.diagrams.net" agent="Mozilla/5.0 (Macintosh; Intel Mac OS X 10_15_7) AppleWebKit/605.1.15 (KHTML, like Gecko) Version/18.5 Safari/605.1.15" version="28.0.7">
  <diagram name="Page-1" id="xkNe2h_N8L9seh0C76Gd">
    <mxGraphModel dx="1971" dy="753" grid="1" gridSize="10" guides="1" tooltips="1" connect="1" arrows="1" fold="1" page="1" pageScale="1" pageWidth="850" pageHeight="1100" math="0" shadow="0">
      <root>
        <mxCell id="0" />
        <mxCell id="1" parent="0" />
        <mxCell id="oCpw31I66OZ9NewX3ntB-3" style="edgeStyle=orthogonalEdgeStyle;rounded=0;orthogonalLoop=1;jettySize=auto;html=1;exitX=0.5;exitY=1;exitDx=0;exitDy=0;entryX=0.5;entryY=0;entryDx=0;entryDy=0;" parent="1" source="oCpw31I66OZ9NewX3ntB-1" target="oCpw31I66OZ9NewX3ntB-2" edge="1">
          <mxGeometry relative="1" as="geometry" />
        </mxCell>
        <mxCell id="oCpw31I66OZ9NewX3ntB-1" value=".root" style="rounded=0;whiteSpace=wrap;html=1;" parent="1" vertex="1">
          <mxGeometry x="330" y="290" width="40" height="20" as="geometry" />
        </mxCell>
        <mxCell id="oCpw31I66OZ9NewX3ntB-2" value="Hit, Wire, RoI" style="rounded=0;whiteSpace=wrap;html=1;" parent="1" vertex="1">
          <mxGeometry x="310" y="330" width="80" height="20" as="geometry" />
        </mxCell>
        <mxCell id="oCpw31I66OZ9NewX3ntB-4" style="rounded=0;orthogonalLoop=1;jettySize=auto;html=1;exitX=0.5;exitY=1;exitDx=0;exitDy=0;entryX=0.5;entryY=0;entryDx=0;entryDy=0;" parent="1" source="oCpw31I66OZ9NewX3ntB-5" target="oCpw31I66OZ9NewX3ntB-6" edge="1">
          <mxGeometry relative="1" as="geometry" />
        </mxCell>
        <mxCell id="oCpw31I66OZ9NewX3ntB-8" style="edgeStyle=none;shape=connector;rounded=0;orthogonalLoop=1;jettySize=auto;html=1;exitX=0.5;exitY=1;exitDx=0;exitDy=0;entryX=0.5;entryY=0;entryDx=0;entryDy=0;strokeColor=default;align=center;verticalAlign=middle;fontFamily=Helvetica;fontSize=11;fontColor=default;labelBackgroundColor=default;endArrow=classic;" parent="1" source="oCpw31I66OZ9NewX3ntB-5" target="oCpw31I66OZ9NewX3ntB-7" edge="1">
          <mxGeometry relative="1" as="geometry" />
        </mxCell>
        <mxCell id="oCpw31I66OZ9NewX3ntB-5" value=".root" style="rounded=0;whiteSpace=wrap;html=1;" parent="1" vertex="1">
          <mxGeometry x="425" y="290" width="40" height="20" as="geometry" />
        </mxCell>
        <mxCell id="oCpw31I66OZ9NewX3ntB-6" value="Hit" style="rounded=0;whiteSpace=wrap;html=1;" parent="1" vertex="1">
          <mxGeometry x="405" y="330" width="20" height="20" as="geometry" />
        </mxCell>
        <mxCell id="oCpw31I66OZ9NewX3ntB-7" value="Wire, RoI" style="rounded=0;whiteSpace=wrap;html=1;" parent="1" vertex="1">
          <mxGeometry x="435" y="330" width="60" height="20" as="geometry" />
        </mxCell>
        <mxCell id="oCpw31I66OZ9NewX3ntB-9" style="rounded=0;orthogonalLoop=1;jettySize=auto;html=1;exitX=0.5;exitY=1;exitDx=0;exitDy=0;entryX=0.5;entryY=0;entryDx=0;entryDy=0;" parent="1" source="oCpw31I66OZ9NewX3ntB-11" target="oCpw31I66OZ9NewX3ntB-12" edge="1">
          <mxGeometry relative="1" as="geometry" />
        </mxCell>
        <mxCell id="oCpw31I66OZ9NewX3ntB-10" style="edgeStyle=none;shape=connector;rounded=0;orthogonalLoop=1;jettySize=auto;html=1;exitX=0.5;exitY=1;exitDx=0;exitDy=0;entryX=0.5;entryY=0;entryDx=0;entryDy=0;strokeColor=default;align=center;verticalAlign=middle;fontFamily=Helvetica;fontSize=11;fontColor=default;labelBackgroundColor=default;endArrow=classic;" parent="1" source="oCpw31I66OZ9NewX3ntB-11" target="oCpw31I66OZ9NewX3ntB-13" edge="1">
          <mxGeometry relative="1" as="geometry" />
        </mxCell>
        <mxCell id="oCpw31I66OZ9NewX3ntB-15" style="edgeStyle=none;shape=connector;rounded=0;orthogonalLoop=1;jettySize=auto;html=1;exitX=0.5;exitY=1;exitDx=0;exitDy=0;entryX=0.5;entryY=0;entryDx=0;entryDy=0;strokeColor=default;align=center;verticalAlign=middle;fontFamily=Helvetica;fontSize=11;fontColor=default;labelBackgroundColor=default;endArrow=classic;" parent="1" source="oCpw31I66OZ9NewX3ntB-11" target="oCpw31I66OZ9NewX3ntB-14" edge="1">
          <mxGeometry relative="1" as="geometry" />
        </mxCell>
        <mxCell id="oCpw31I66OZ9NewX3ntB-11" value=".root" style="rounded=0;whiteSpace=wrap;html=1;" parent="1" vertex="1">
          <mxGeometry x="550" y="290" width="40" height="20" as="geometry" />
        </mxCell>
        <mxCell id="oCpw31I66OZ9NewX3ntB-12" value="Hit" style="rounded=0;whiteSpace=wrap;html=1;" parent="1" vertex="1">
          <mxGeometry x="510" y="330" width="30" height="20" as="geometry" />
        </mxCell>
        <mxCell id="oCpw31I66OZ9NewX3ntB-13" value="Wire" style="rounded=0;whiteSpace=wrap;html=1;" parent="1" vertex="1">
          <mxGeometry x="550" y="330" width="40" height="20" as="geometry" />
        </mxCell>
        <mxCell id="oCpw31I66OZ9NewX3ntB-14" value="RoI" style="rounded=0;whiteSpace=wrap;html=1;" parent="1" vertex="1">
          <mxGeometry x="600" y="330" width="30" height="20" as="geometry" />
        </mxCell>
        <mxCell id="oCpw31I66OZ9NewX3ntB-16" value="" style="rounded=0;whiteSpace=wrap;html=1;fontFamily=Helvetica;fontSize=11;labelBackgroundColor=default;fillColor=#ffe6cc;strokeColor=#d79b00;" parent="1" vertex="1">
          <mxGeometry x="125.25" y="290" width="130" height="110" as="geometry" />
        </mxCell>
        <mxCell id="oCpw31I66OZ9NewX3ntB-17" value="Hit" style="rounded=0;whiteSpace=wrap;html=1;fontFamily=Helvetica;fontSize=11;labelBackgroundColor=none;fillColor=#f8cecc;strokeColor=#b85450;" parent="1" vertex="1">
          <mxGeometry x="159.75" y="300" width="20" height="20" as="geometry" />
        </mxCell>
        <mxCell id="oCpw31I66OZ9NewX3ntB-19" value="Hit" style="rounded=0;whiteSpace=wrap;html=1;fontFamily=Helvetica;fontSize=11;labelBackgroundColor=none;fillColor=#f8cecc;strokeColor=#b85450;" parent="1" vertex="1">
          <mxGeometry x="179.75" y="300" width="20" height="20" as="geometry" />
        </mxCell>
        <mxCell id="oCpw31I66OZ9NewX3ntB-20" value="Hit" style="rounded=0;whiteSpace=wrap;html=1;fontFamily=Helvetica;fontSize=11;labelBackgroundColor=none;fillColor=#f8cecc;strokeColor=#b85450;" parent="1" vertex="1">
          <mxGeometry x="200.75" y="300" width="20" height="20" as="geometry" />
        </mxCell>
        <mxCell id="oCpw31I66OZ9NewX3ntB-21" value="" style="shape=tape;whiteSpace=wrap;html=1;fontFamily=Helvetica;fontSize=11;labelBackgroundColor=default;rotation=-90;fillColor=#f8cecc;strokeColor=#b85450;" parent="1" vertex="1">
          <mxGeometry x="190.75" y="305" width="20" height="10" as="geometry" />
        </mxCell>
        <mxCell id="oCpw31I66OZ9NewX3ntB-32" style="edgeStyle=none;shape=connector;rounded=0;orthogonalLoop=1;jettySize=auto;html=1;exitX=0.25;exitY=1;exitDx=0;exitDy=0;entryX=0;entryY=0;entryDx=0;entryDy=0;strokeColor=default;align=center;verticalAlign=middle;fontFamily=Helvetica;fontSize=11;fontColor=default;labelBackgroundColor=default;endArrow=none;endFill=0;" parent="1" source="oCpw31I66OZ9NewX3ntB-22" target="oCpw31I66OZ9NewX3ntB-27" edge="1">
          <mxGeometry relative="1" as="geometry" />
        </mxCell>
        <mxCell id="oCpw31I66OZ9NewX3ntB-33" style="edgeStyle=none;shape=connector;rounded=0;orthogonalLoop=1;jettySize=auto;html=1;exitX=0.5;exitY=1;exitDx=0;exitDy=0;entryX=1;entryY=0;entryDx=0;entryDy=0;strokeColor=default;align=center;verticalAlign=middle;fontFamily=Helvetica;fontSize=11;fontColor=default;labelBackgroundColor=default;endArrow=none;endFill=0;" parent="1" source="oCpw31I66OZ9NewX3ntB-22" target="oCpw31I66OZ9NewX3ntB-29" edge="1">
          <mxGeometry relative="1" as="geometry" />
        </mxCell>
        <mxCell id="oCpw31I66OZ9NewX3ntB-22" value="Wire" style="rounded=0;whiteSpace=wrap;html=1;fontFamily=Helvetica;fontSize=11;labelBackgroundColor=none;fillColor=#dae8fc;strokeColor=#6c8ebf;" parent="1" vertex="1">
          <mxGeometry x="152.5" y="330" width="30" height="20" as="geometry" />
        </mxCell>
        <mxCell id="oCpw31I66OZ9NewX3ntB-23" value="Wire" style="rounded=0;whiteSpace=wrap;html=1;fontFamily=Helvetica;fontSize=11;labelBackgroundColor=none;fillColor=#dae8fc;strokeColor=#6c8ebf;" parent="1" vertex="1">
          <mxGeometry x="182.5" y="330" width="30" height="20" as="geometry" />
        </mxCell>
        <mxCell id="oCpw31I66OZ9NewX3ntB-24" value="Wire" style="rounded=0;whiteSpace=wrap;html=1;fontFamily=Helvetica;fontSize=11;labelBackgroundColor=none;fillColor=#dae8fc;strokeColor=#6c8ebf;" parent="1" vertex="1">
          <mxGeometry x="212.5" y="330" width="30" height="20" as="geometry" />
        </mxCell>
        <mxCell id="oCpw31I66OZ9NewX3ntB-25" value="" style="shape=tape;whiteSpace=wrap;html=1;fontFamily=Helvetica;fontSize=11;labelBackgroundColor=default;rotation=-90;fillColor=#dae8fc;strokeColor=#6c8ebf;" parent="1" vertex="1">
          <mxGeometry x="203.5" y="335" width="20" height="10" as="geometry" />
        </mxCell>
        <mxCell id="oCpw31I66OZ9NewX3ntB-27" value="RoI" style="rounded=0;whiteSpace=wrap;html=1;fontFamily=Helvetica;fontSize=11;labelBackgroundColor=none;fillColor=#d5e8d4;strokeColor=#82b366;" parent="1" vertex="1">
          <mxGeometry x="137" y="370" width="20" height="20" as="geometry" />
        </mxCell>
        <mxCell id="oCpw31I66OZ9NewX3ntB-28" value="RoI" style="rounded=0;whiteSpace=wrap;html=1;fontFamily=Helvetica;fontSize=11;labelBackgroundColor=none;fillColor=#d5e8d4;strokeColor=#82b366;" parent="1" vertex="1">
          <mxGeometry x="157" y="370" width="20" height="20" as="geometry" />
        </mxCell>
        <mxCell id="oCpw31I66OZ9NewX3ntB-29" value="RoI" style="rounded=0;whiteSpace=wrap;html=1;fontFamily=Helvetica;fontSize=11;labelBackgroundColor=none;fillColor=#d5e8d4;strokeColor=#82b366;" parent="1" vertex="1">
          <mxGeometry x="178" y="370" width="20" height="20" as="geometry" />
        </mxCell>
        <mxCell id="oCpw31I66OZ9NewX3ntB-30" value="" style="shape=tape;whiteSpace=wrap;html=1;fontFamily=Helvetica;fontSize=11;labelBackgroundColor=default;rotation=-90;fillColor=#d5e8d4;strokeColor=#82b366;" parent="1" vertex="1">
          <mxGeometry x="168" y="375" width="20" height="10" as="geometry" />
        </mxCell>
        <mxCell id="oCpw31I66OZ9NewX3ntB-35" value="" style="rounded=0;whiteSpace=wrap;html=1;fontFamily=Helvetica;fontSize=11;labelBackgroundColor=default;fillColor=#ffe6cc;strokeColor=#d79b00;" parent="1" vertex="1">
          <mxGeometry x="125.25" y="410" width="130" height="20" as="geometry" />
        </mxCell>
        <mxCell id="oCpw31I66OZ9NewX3ntB-36" value="" style="rounded=0;whiteSpace=wrap;html=1;fontFamily=Helvetica;fontSize=11;labelBackgroundColor=default;fillColor=#ffe6cc;strokeColor=#d79b00;" parent="1" vertex="1">
          <mxGeometry x="125.25" y="430" width="130" height="20" as="geometry" />
        </mxCell>
        <mxCell id="oCpw31I66OZ9NewX3ntB-37" value="" style="shape=tape;whiteSpace=wrap;html=1;fontFamily=Helvetica;fontSize=11;labelBackgroundColor=default;fillColor=#ffe6cc;strokeColor=#d79b00;" parent="1" vertex="1">
          <mxGeometry x="125.25" y="420" width="130" height="20" as="geometry" />
        </mxCell>
        <mxCell id="oCpw31I66OZ9NewX3ntB-38" value="" style="rounded=0;whiteSpace=wrap;html=1;fontFamily=Helvetica;fontSize=11;labelBackgroundColor=default;fillColor=#ffe6cc;strokeColor=#d79b00;" parent="1" vertex="1">
          <mxGeometry x="125.25" y="400" width="130" height="10" as="geometry" />
        </mxCell>
        <mxCell id="oCpw31I66OZ9NewX3ntB-40" value="" style="endArrow=classic;startArrow=classic;html=1;rounded=0;strokeColor=default;align=center;verticalAlign=middle;fontFamily=Helvetica;fontSize=11;fontColor=default;labelBackgroundColor=default;" parent="1" edge="1">
          <mxGeometry width="50" height="50" relative="1" as="geometry">
            <mxPoint x="115.25" y="400" as="sourcePoint" />
            <mxPoint x="115.25" y="290" as="targetPoint" />
          </mxGeometry>
        </mxCell>
        <mxCell id="oCpw31I66OZ9NewX3ntB-34" value="Event" style="text;html=1;align=center;verticalAlign=middle;resizable=0;points=[];autosize=1;strokeColor=none;fillColor=none;fontFamily=Helvetica;fontSize=11;fontColor=default;labelBackgroundColor=default;rotation=-90;" parent="1" vertex="1">
          <mxGeometry x="90" y="335" width="50" height="30" as="geometry" />
        </mxCell>
        <mxCell id="oCpw31I66OZ9NewX3ntB-41" value="&lt;div&gt;Fill per event&lt;/div&gt;#row = Events" style="rounded=0;whiteSpace=wrap;html=1;fontFamily=Helvetica;fontSize=11;fontColor=default;labelBackgroundColor=default;" parent="1" vertex="1">
          <mxGeometry x="270" y="395" width="80" height="55" as="geometry" />
        </mxCell>
        <mxCell id="oCpw31I66OZ9NewX3ntB-42" value="&lt;div&gt;Fill per spill (subevent)&lt;/div&gt;#row = Events * spills" style="rounded=0;whiteSpace=wrap;html=1;fontFamily=Helvetica;fontSize=11;fontColor=default;labelBackgroundColor=default;" parent="1" vertex="1">
          <mxGeometry x="365" y="395" width="120" height="55" as="geometry" />
        </mxCell>
        <mxCell id="oCpw31I66OZ9NewX3ntB-43" value="&lt;div&gt;Fill per top object&amp;nbsp;&lt;/div&gt;&lt;div&gt;(i.e. Hit/wire)&lt;/div&gt;#row = #of hits/wires" style="rounded=0;whiteSpace=wrap;html=1;fontFamily=Helvetica;fontSize=11;fontColor=default;labelBackgroundColor=default;" parent="1" vertex="1">
          <mxGeometry x="500" y="395" width="120" height="55" as="geometry" />
        </mxCell>
        <mxCell id="oCpw31I66OZ9NewX3ntB-44" value="&lt;div&gt;Fill per element&amp;nbsp;&lt;/div&gt;&lt;div&gt;(i.e. Hit/wire/RoI)&lt;/div&gt;#row = #of RoI" style="rounded=0;whiteSpace=wrap;html=1;fontFamily=Helvetica;fontSize=11;fontColor=default;labelBackgroundColor=default;" parent="1" vertex="1">
          <mxGeometry x="630" y="395" width="120" height="55" as="geometry" />
        </mxCell>
        <mxCell id="oCpw31I66OZ9NewX3ntB-45" value="" style="rounded=0;whiteSpace=wrap;html=1;fontFamily=Helvetica;fontSize=11;labelBackgroundColor=default;fillColor=#ffe6cc;strokeColor=#d79b00;" parent="1" vertex="1">
          <mxGeometry x="-124.75" y="290" width="130" height="110" as="geometry" />
        </mxCell>
        <mxCell id="oCpw31I66OZ9NewX3ntB-46" value="Hits" style="rounded=0;whiteSpace=wrap;html=1;fontFamily=Helvetica;fontSize=11;labelBackgroundColor=none;fillColor=#f8cecc;strokeColor=#b85450;" parent="1" vertex="1">
          <mxGeometry x="-90.25" y="300" width="70.25" height="20" as="geometry" />
        </mxCell>
        <mxCell id="oCpw31I66OZ9NewX3ntB-50" style="edgeStyle=none;shape=connector;rounded=0;orthogonalLoop=1;jettySize=auto;html=1;exitX=0.25;exitY=1;exitDx=0;exitDy=0;entryX=0;entryY=0;entryDx=0;entryDy=0;strokeColor=default;align=center;verticalAlign=middle;fontFamily=Helvetica;fontSize=11;fontColor=default;labelBackgroundColor=default;endArrow=none;endFill=0;" parent="1" source="oCpw31I66OZ9NewX3ntB-52" target="oCpw31I66OZ9NewX3ntB-56" edge="1">
          <mxGeometry relative="1" as="geometry" />
        </mxCell>
        <mxCell id="oCpw31I66OZ9NewX3ntB-51" style="edgeStyle=none;shape=connector;rounded=0;orthogonalLoop=1;jettySize=auto;html=1;exitX=0.5;exitY=1;exitDx=0;exitDy=0;entryX=1;entryY=0;entryDx=0;entryDy=0;strokeColor=default;align=center;verticalAlign=middle;fontFamily=Helvetica;fontSize=11;fontColor=default;labelBackgroundColor=default;endArrow=none;endFill=0;" parent="1" source="oCpw31I66OZ9NewX3ntB-52" edge="1">
          <mxGeometry relative="1" as="geometry">
            <mxPoint x="-52" y="370" as="targetPoint" />
          </mxGeometry>
        </mxCell>
        <mxCell id="oCpw31I66OZ9NewX3ntB-52" value="Wires" style="rounded=0;whiteSpace=wrap;html=1;fontFamily=Helvetica;fontSize=11;labelBackgroundColor=none;fillColor=#dae8fc;strokeColor=#6c8ebf;" parent="1" vertex="1">
          <mxGeometry x="-97.5" y="330" width="77.5" height="20" as="geometry" />
        </mxCell>
        <mxCell id="oCpw31I66OZ9NewX3ntB-56" value="RoIs" style="rounded=0;whiteSpace=wrap;html=1;fontFamily=Helvetica;fontSize=11;labelBackgroundColor=none;fillColor=#d5e8d4;strokeColor=#82b366;" parent="1" vertex="1">
          <mxGeometry x="-113" y="370" width="63" height="20" as="geometry" />
        </mxCell>
        <mxCell id="oCpw31I66OZ9NewX3ntB-60" value="" style="rounded=0;whiteSpace=wrap;html=1;fontFamily=Helvetica;fontSize=11;labelBackgroundColor=default;fillColor=#ffe6cc;strokeColor=#d79b00;" parent="1" vertex="1">
          <mxGeometry x="-124.75" y="410" width="130" height="20" as="geometry" />
        </mxCell>
        <mxCell id="oCpw31I66OZ9NewX3ntB-61" value="" style="rounded=0;whiteSpace=wrap;html=1;fontFamily=Helvetica;fontSize=11;labelBackgroundColor=default;fillColor=#ffe6cc;strokeColor=#d79b00;" parent="1" vertex="1">
          <mxGeometry x="-124.75" y="430" width="130" height="20" as="geometry" />
        </mxCell>
        <mxCell id="oCpw31I66OZ9NewX3ntB-62" value="" style="shape=tape;whiteSpace=wrap;html=1;fontFamily=Helvetica;fontSize=11;labelBackgroundColor=default;fillColor=#ffe6cc;strokeColor=#d79b00;" parent="1" vertex="1">
          <mxGeometry x="-124.75" y="420" width="130" height="20" as="geometry" />
        </mxCell>
        <mxCell id="oCpw31I66OZ9NewX3ntB-63" value="" style="rounded=0;whiteSpace=wrap;html=1;fontFamily=Helvetica;fontSize=11;labelBackgroundColor=default;fillColor=#ffe6cc;strokeColor=#d79b00;" parent="1" vertex="1">
          <mxGeometry x="-124.75" y="400" width="130" height="10" as="geometry" />
        </mxCell>
        <mxCell id="oCpw31I66OZ9NewX3ntB-64" value="" style="endArrow=classic;startArrow=classic;html=1;rounded=0;strokeColor=default;align=center;verticalAlign=middle;fontFamily=Helvetica;fontSize=11;fontColor=default;labelBackgroundColor=default;" parent="1" edge="1">
          <mxGeometry width="50" height="50" relative="1" as="geometry">
            <mxPoint x="-134.75" y="400" as="sourcePoint" />
            <mxPoint x="-134.75" y="290" as="targetPoint" />
          </mxGeometry>
        </mxCell>
        <mxCell id="oCpw31I66OZ9NewX3ntB-65" value="Event" style="text;html=1;align=center;verticalAlign=middle;resizable=0;points=[];autosize=1;strokeColor=none;fillColor=none;fontFamily=Helvetica;fontSize=11;fontColor=default;labelBackgroundColor=default;rotation=-90;" parent="1" vertex="1">
          <mxGeometry x="-160" y="335" width="50" height="30" as="geometry" />
        </mxCell>
        <mxCell id="d74SWnW34iE915hbH8uA-26" style="edgeStyle=orthogonalEdgeStyle;rounded=0;orthogonalLoop=1;jettySize=auto;html=1;exitX=1;exitY=0.5;exitDx=0;exitDy=0;entryX=0;entryY=0.5;entryDx=0;entryDy=0;" edge="1" parent="1" source="d74SWnW34iE915hbH8uA-2" target="d74SWnW34iE915hbH8uA-3">
          <mxGeometry relative="1" as="geometry" />
        </mxCell>
        <mxCell id="d74SWnW34iE915hbH8uA-2" value="&lt;font&gt;Checksum error&lt;/font&gt;&lt;div&gt;&lt;font&gt;(Read() &amp;amp; TBrowser)&lt;/font&gt;&lt;/div&gt;" style="rounded=0;whiteSpace=wrap;html=1;" vertex="1" parent="1">
          <mxGeometry x="167.5" y="600" width="122.5" height="60" as="geometry" />
        </mxCell>
        <mxCell id="d74SWnW34iE915hbH8uA-27" style="edgeStyle=orthogonalEdgeStyle;rounded=0;orthogonalLoop=1;jettySize=auto;html=1;exitX=1;exitY=0.5;exitDx=0;exitDy=0;entryX=0;entryY=0.5;entryDx=0;entryDy=0;" edge="1" parent="1" source="d74SWnW34iE915hbH8uA-3" target="d74SWnW34iE915hbH8uA-4">
          <mxGeometry relative="1" as="geometry" />
        </mxCell>
        <mxCell id="d74SWnW34iE915hbH8uA-3" value="Read()&amp;nbsp;&lt;div&gt;contains a set of reading benchmark()&lt;/div&gt;" style="rounded=0;whiteSpace=wrap;html=1;" vertex="1" parent="1">
          <mxGeometry x="330" y="600" width="120" height="60" as="geometry" />
        </mxCell>
        <mxCell id="d74SWnW34iE915hbH8uA-17" style="edgeStyle=orthogonalEdgeStyle;rounded=0;orthogonalLoop=1;jettySize=auto;html=1;exitX=1;exitY=0.5;exitDx=0;exitDy=0;entryX=0;entryY=0.5;entryDx=0;entryDy=0;" edge="1" parent="1" source="d74SWnW34iE915hbH8uA-4" target="d74SWnW34iE915hbH8uA-5">
          <mxGeometry relative="1" as="geometry">
            <mxPoint x="640" y="630.5294117647059" as="targetPoint" />
          </mxGeometry>
        </mxCell>
        <mxCell id="d74SWnW34iE915hbH8uA-4" value="Read()&lt;div&gt;fails in different benchmark() at different times&lt;/div&gt;" style="rounded=0;whiteSpace=wrap;html=1;" vertex="1" parent="1">
          <mxGeometry x="485" y="600" width="120" height="60" as="geometry" />
        </mxCell>
        <mxCell id="d74SWnW34iE915hbH8uA-29" style="edgeStyle=orthogonalEdgeStyle;rounded=0;orthogonalLoop=1;jettySize=auto;html=1;exitX=0.5;exitY=1;exitDx=0;exitDy=0;entryX=0.5;entryY=0;entryDx=0;entryDy=0;" edge="1" parent="1" source="d74SWnW34iE915hbH8uA-5" target="d74SWnW34iE915hbH8uA-6">
          <mxGeometry relative="1" as="geometry" />
        </mxCell>
        <mxCell id="d74SWnW34iE915hbH8uA-5" value="Something is related to threads" style="rounded=0;whiteSpace=wrap;html=1;" vertex="1" parent="1">
          <mxGeometry x="650" y="600" width="120" height="60" as="geometry" />
        </mxCell>
        <mxCell id="d74SWnW34iE915hbH8uA-19" style="edgeStyle=orthogonalEdgeStyle;rounded=0;orthogonalLoop=1;jettySize=auto;html=1;exitX=0;exitY=0.5;exitDx=0;exitDy=0;entryX=1;entryY=0.5;entryDx=0;entryDy=0;" edge="1" parent="1" source="d74SWnW34iE915hbH8uA-6" target="d74SWnW34iE915hbH8uA-7">
          <mxGeometry relative="1" as="geometry" />
        </mxCell>
        <mxCell id="d74SWnW34iE915hbH8uA-6" value="nThreads = 1" style="rounded=0;whiteSpace=wrap;html=1;" vertex="1" parent="1">
          <mxGeometry x="650" y="700" width="120" height="40" as="geometry" />
        </mxCell>
        <mxCell id="d74SWnW34iE915hbH8uA-20" style="edgeStyle=orthogonalEdgeStyle;rounded=0;orthogonalLoop=1;jettySize=auto;html=1;exitX=0;exitY=0.5;exitDx=0;exitDy=0;entryX=1;entryY=0.5;entryDx=0;entryDy=0;" edge="1" parent="1" source="d74SWnW34iE915hbH8uA-7" target="d74SWnW34iE915hbH8uA-8">
          <mxGeometry relative="1" as="geometry" />
        </mxCell>
        <mxCell id="d74SWnW34iE915hbH8uA-7" value="Worked, but !" style="rounded=0;whiteSpace=wrap;html=1;" vertex="1" parent="1">
          <mxGeometry x="485" y="700" width="120" height="40" as="geometry" />
        </mxCell>
        <mxCell id="d74SWnW34iE915hbH8uA-30" style="edgeStyle=orthogonalEdgeStyle;rounded=0;orthogonalLoop=1;jettySize=auto;html=1;exitX=0;exitY=0.5;exitDx=0;exitDy=0;entryX=1;entryY=0.5;entryDx=0;entryDy=0;" edge="1" parent="1" source="d74SWnW34iE915hbH8uA-8" target="d74SWnW34iE915hbH8uA-9">
          <mxGeometry relative="1" as="geometry" />
        </mxCell>
        <mxCell id="d74SWnW34iE915hbH8uA-8" value="Race conditions" style="rounded=0;whiteSpace=wrap;html=1;" vertex="1" parent="1">
          <mxGeometry x="330" y="700" width="120" height="40" as="geometry" />
        </mxCell>
        <mxCell id="d74SWnW34iE915hbH8uA-22" style="edgeStyle=orthogonalEdgeStyle;rounded=0;orthogonalLoop=1;jettySize=auto;html=1;exitX=0.5;exitY=1;exitDx=0;exitDy=0;entryX=0.5;entryY=0;entryDx=0;entryDy=0;" edge="1" parent="1" source="d74SWnW34iE915hbH8uA-9" target="d74SWnW34iE915hbH8uA-10">
          <mxGeometry relative="1" as="geometry" />
        </mxCell>
        <mxCell id="d74SWnW34iE915hbH8uA-9" value="Two parallel writers.&lt;div&gt;1. for hit, 2. for wire&lt;/div&gt;" style="rounded=0;whiteSpace=wrap;html=1;" vertex="1" parent="1">
          <mxGeometry x="168.75" y="700" width="121.25" height="40" as="geometry" />
        </mxCell>
        <mxCell id="d74SWnW34iE915hbH8uA-31" style="edgeStyle=orthogonalEdgeStyle;rounded=0;orthogonalLoop=1;jettySize=auto;html=1;exitX=1;exitY=0.5;exitDx=0;exitDy=0;entryX=0;entryY=0.5;entryDx=0;entryDy=0;" edge="1" parent="1" source="d74SWnW34iE915hbH8uA-10" target="d74SWnW34iE915hbH8uA-11">
          <mxGeometry relative="1" as="geometry" />
        </mxCell>
        <mxCell id="d74SWnW34iE915hbH8uA-10" value="I serialized.&amp;nbsp;&lt;div&gt;First Hit, then Wire&lt;/div&gt;" style="rounded=0;whiteSpace=wrap;html=1;" vertex="1" parent="1">
          <mxGeometry x="168.75" y="790" width="121.25" height="80" as="geometry" />
        </mxCell>
        <mxCell id="d74SWnW34iE915hbH8uA-32" style="edgeStyle=orthogonalEdgeStyle;rounded=0;orthogonalLoop=1;jettySize=auto;html=1;exitX=1;exitY=0.5;exitDx=0;exitDy=0;entryX=0;entryY=0.5;entryDx=0;entryDy=0;" edge="1" parent="1" source="d74SWnW34iE915hbH8uA-11" target="d74SWnW34iE915hbH8uA-12">
          <mxGeometry relative="1" as="geometry" />
        </mxCell>
        <mxCell id="d74SWnW34iE915hbH8uA-11" value="Worked but poor performance. And we cannot store buffer all the wire, while we store all the hits." style="rounded=0;whiteSpace=wrap;html=1;" vertex="1" parent="1">
          <mxGeometry x="330" y="790" width="120" height="80" as="geometry" />
        </mxCell>
        <mxCell id="d74SWnW34iE915hbH8uA-12" value="Back to two parallel writers.&amp;nbsp;&lt;div&gt;Mutex flush from buffer to memory only when buffer is full &amp;nbsp;&lt;/div&gt;" style="rounded=0;whiteSpace=wrap;html=1;" vertex="1" parent="1">
          <mxGeometry x="480" y="790" width="160" height="80" as="geometry" />
        </mxCell>
        <mxCell id="d74SWnW34iE915hbH8uA-33" style="edgeStyle=orthogonalEdgeStyle;rounded=0;orthogonalLoop=1;jettySize=auto;html=1;exitX=0.5;exitY=1;exitDx=0;exitDy=0;" edge="1" parent="1" source="d74SWnW34iE915hbH8uA-12" target="d74SWnW34iE915hbH8uA-12">
          <mxGeometry relative="1" as="geometry" />
        </mxCell>
      </root>
    </mxGraphModel>
  </diagram>
</mxfile>
